<?xml version="1.0" standalone="no"?>
<!DOCTYPE svg PUBLIC "-//W3C//DTD SVG 20010904//EN"
 "http://www.w3.org/TR/2001/REC-SVG-20010904/DTD/svg10.dtd">
<svg version="1.0" xmlns="http://www.w3.org/2000/svg"
 width="2542.000000pt" height="2523.000000pt" viewBox="0 0 2542.000000 2523.000000"
 preserveAspectRatio="xMidYMid meet">

<g transform="translate(0.000000,2523.000000) scale(0.100000,-0.100000)"
fill="#000000" stroke="none">
<path d="M12090 24653 c-295 -10 -793 -53 -1140 -99 -4302 -568 -8002 -3405
-9688 -7429 -499 -1193 -804 -2461 -906 -3775 -54 -687 -45 -1485 25 -2180
165 -1659 679 -3293 1487 -4735 289 -516 660 -1078 1007 -1525 1392 -1794
3210 -3145 5335 -3965 220 -85 740 -258 970 -324 1569 -446 3148 -578 4770
-400 3124 342 6021 1904 8049 4339 489 588 922 1218 1301 1896 132 235 387
747 495 994 865 1970 1197 4096 974 6240 -250 2406 -1213 4688 -2768 6554
-424 509 -963 1054 -1481 1497 -995 851 -2170 1560 -3400 2051 -1271 508
-2601 794 -4000 858 -191 9 -803 11 -1030 3z m825 -3503 c127 -5 313 -17 415
-26 2554 -216 4882 -1546 6381 -3646 855 -1198 1394 -2598 1563 -4063 66 -566
73 -1256 20 -1830 -184 -1993 -1045 -3852 -2449 -5293 -495 -509 -1035 -943
-1645 -1324 -1009 -630 -2130 -1042 -3325 -1223 -660 -100 -1416 -121 -2095
-60 -1895 172 -3669 953 -5090 2242 -315 285 -683 678 -951 1013 -1029 1288
-1682 2859 -1859 4475 -45 417 -64 1086 -41 1481 92 1576 585 3055 1451 4356
861 1292 2047 2332 3440 3015 1296 635 2757 944 4185 883z"/>
<path d="M12290 16773 c-19 -1 -87 -8 -150 -14 -1291 -118 -2498 -851 -3223
-1955 -415 -632 -649 -1326 -708 -2094 -14 -191 -6 -602 15 -790 143 -1225
764 -2304 1749 -3037 1046 -778 2396 -1045 3672 -727 1248 312 2305 1171 2872
2334 372 763 512 1625 403 2475 -176 1373 -999 2587 -2215 3266 -547 305
-1160 489 -1799 539 -118 9 -532 11 -616 3z"/>
</g>
</svg>
